<svg width="18" height="19" viewBox="0 0 18 19" fill="none" xmlns="http://www.w3.org/2000/svg">
<g clip-path="url(#clip0_23_4386)">
<path d="M6.86986 16.7541C7.27968 16.7541 7.61191 16.4219 7.61191 16.0121C7.61191 15.6022 7.27968 15.27 6.86986 15.27C6.46004 15.27 6.12781 15.6022 6.12781 16.0121C6.12781 16.4219 6.46004 16.7541 6.86986 16.7541Z" stroke="black" stroke-width="2" stroke-linecap="round" stroke-linejoin="round"/>
<path d="M15.0325 16.7541C15.4423 16.7541 15.7745 16.4219 15.7745 16.0121C15.7745 15.6022 15.4423 15.27 15.0325 15.27C14.6226 15.27 14.2904 15.6022 14.2904 16.0121C14.2904 16.4219 14.6226 16.7541 15.0325 16.7541Z" stroke="black" stroke-width="2" stroke-linecap="round" stroke-linejoin="round"/>
<path d="M0.933472 1.1709H3.90168L5.89038 11.107C5.95823 11.4486 6.14409 11.7555 6.41541 11.9739C6.68674 12.1923 7.02624 12.3083 7.37448 12.3017H14.5872C14.9355 12.3083 15.275 12.1923 15.5463 11.9739C15.8176 11.7555 16.0035 11.4486 16.0713 11.107L17.2586 4.88116H4.64373" stroke="black" stroke-width="2" stroke-linecap="round" stroke-linejoin="round"/>
</g>
<defs>
<clipPath id="clip0_23_4386">
<rect width="17.8092" height="17.8092" fill="black" transform="translate(0.191406 0.428955)"/>
</clipPath>
</defs>
</svg>